# xmcd
#
# Track frame offsets:
#	150
#	24841
#	42430
#	68094
#	90599
#	107630
#	126118
#	147465
#	167904
#	186734
#	214198
#	227625
#	241579
#	256980
#	277915
#	297631
#	319861
#
# Disc length: 4669 seconds
#
# Revision: 2
# Processed by: cddbd v1.5.2PL0 Copyright (c) Steve Scherf et al.
# Submitted via: audiograbber 1.83.01
#
DISCID=fb123b11
DTITLE=Lars and Dixi and Band - Blues op Platt
DYEAR=2002
DGENRE=Blues
TTITLE0=Veel to Kostboor
TTITLE1=Josephine
TTITLE2=Tango Tied
TTITLE3=Dr. Blues
TTITLE4=Inflation
TTITLE5=De Nee'n Wogen
TTITLE6=Blues In't Blood
TTITLE7=Klabauternacht
TTITLE8=De Lange Dag
TTITLE9=Ick Schiet Di Wat
TTITLE10=De Matros in Tirol
TTITLE11=Dat Gliekt Sik Ut
TTITLE12=16 Tunnen
TTITLE13=Röög Di
TTITLE14=So Veel Arger
TTITLE15=Wat Du Wullt
TTITLE16=Frisör
EXTD=
EXTT0=
EXTT1=
EXTT2=
EXTT3=
EXTT4=
EXTT5=
EXTT6=
EXTT7=
EXTT8=
EXTT9=
EXTT10=
EXTT11=
EXTT12=
EXTT13=
EXTT14=
EXTT15=
EXTT16=
PLAYORDER=
